<?xml version="1.0" encoding="UTF-8" standalone="no"?>
<!-- Created with Inkscape (http://www.inkscape.org/) -->

<svg
   xmlns:dc="http://purl.org/dc/elements/1.1/"
   xmlns:cc="http://creativecommons.org/ns#"
   xmlns:rdf="http://www.w3.org/1999/02/22-rdf-syntax-ns#"
   xmlns:svg="http://www.w3.org/2000/svg"
   xmlns="http://www.w3.org/2000/svg"
   xmlns:sodipodi="http://sodipodi.sourceforge.net/DTD/sodipodi-0.dtd"
   xmlns:inkscape="http://www.inkscape.org/namespaces/inkscape"
   width="500"
   height="500"
   id="svg3033"
   version="1.1"
   inkscape:version="0.48.4 r9939"
   sodipodi:docname="New document 2">
  <defs
     id="defs3035" />
  <sodipodi:namedview
     id="base"
     pagecolor="#ffffff"
     bordercolor="#666666"
     borderopacity="1.0"
     inkscape:pageopacity="0.0"
     inkscape:pageshadow="2"
     inkscape:zoom="0.35"
     inkscape:cx="350"
     inkscape:cy="520"
     inkscape:document-units="px"
     showgrid="false"
     inkscape:window-width="1600"
     inkscape:window-height="876"
     inkscape:window-x="0"
     inkscape:window-y="24"
     inkscape:window-maximized="1"
     inkscape:current-layer="svg3033" />
  <metadata
     id="metadata3038">
    <rdf:RDF>
      <cc:Work
         rdf:about="">
        <dc:format>image/svg+xml</dc:format>
        <dc:type
           rdf:resource="http://purl.org/dc/dcmitype/StillImage" />
        <dc:title></dc:title>
      </cc:Work>
    </rdf:RDF>
  </metadata>
  <g
     transform="matrix(5.9788203,0,0,8.3415408,-1532.5853,-3241.6081)"
     id="g3"
     inkscape:export-filename="/home/viktor/Dropbox/02.#BUS/International Arbitration/#IACC/logo/iacc.03.1.png"
     inkscape:export-xdpi="470.4985"
     inkscape:export-ydpi="470.4985">
    <g
       id="g5">
      <g
         id="g7">
        <path
           style="fill-rule:evenodd"
           inkscape:connector-curvature="0"
           clip-rule="evenodd"
           d="m 271,404.8 c 2,0.8 1.3,-6.6 -0.3,-7.2 -1.1,-0.4 -3.8,2.3 -5.3,6.2 -1.5,4 -1.3,7.8 -0.2,8.2 1.6,0.6 7,-4.3 5,-5.1 0,-0.8 0.2,-1.5 0.8,-2.1 l 0,0 z m 1.9,0.7 c 21,8 41.9,16.1 62.9,24.1 0.9,1 0.6,1.9 -0.8,2.1 -21.5,-8.2 -41,-15.6 -62.9,-24.1 -1,2.2 -4.9,7.4 -8.1,6.2 -1.5,-0.6 -1.9,-5.4 0,-10.5 1.9,-5.1 5.4,-8.5 7,-7.9 3.1,1.2 2.6,7.7 1.9,10.1 z"
           id="path9" />
        <polygon
           style="fill-rule:evenodd;stroke:#000000;stroke-width:0.56690001;stroke-miterlimit:22.92560005"
           clip-rule="evenodd"
           stroke-miterlimit="22.9256"
           points="326,435.9 328,436.7 328.7,434.9 329.1,435.1 330.1,432.5 329.4,432.3 331.8,425.8 332.5,426.1 333.2,424.4 333.7,424.6 334.7,422 332.7,421.2 332,423 329.1,421.9 329.8,420.1 327.8,419.3 327.1,421.1 326.6,420.9 325.7,423.5 326.7,423.9 324.3,430.3 323.2,429.9 322.6,431.7 322,431.4 321,434.1 323,434.8 323.7,433 326.7,434.1 "
           id="polygon11" />
      </g>
      <g
         id="g13">
        <path
           style="fill-rule:evenodd"
           inkscape:connector-curvature="0"
           clip-rule="evenodd"
           d="m 325.3,405.1 c -2,0.8 -1.3,-6.6 0.3,-7.2 1.1,-0.4 3.8,2.3 5.3,6.2 1.5,4 1.3,7.8 0.2,8.2 -1.6,0.6 -7,-4.3 -5,-5.1 0,-0.7 -0.2,-1.4 -0.8,-2.1 l 0,0 z m -1.9,0.7 c -21,8 -41.9,16.1 -62.9,24.1 -0.9,1 -0.6,1.9 0.8,2.1 21.5,-8.2 41,-15.6 62.9,-24.1 1,2.2 4.9,7.4 8.1,6.2 1.5,-0.6 1.9,-5.4 0,-10.5 -1.9,-5.1 -5.4,-8.5 -7,-7.9 -3.1,1.2 -2.6,7.7 -1.9,10.1 z"
           id="path15" />
        <polygon
           style="fill-rule:evenodd;stroke:#000000;stroke-width:0.56690001;stroke-miterlimit:22.92560005"
           clip-rule="evenodd"
           stroke-miterlimit="22.9256"
           points="270.3,436.3 268.3,437.1 267.6,435.3 267.2,435.4 266.2,432.9 266.9,432.6 264.5,426.2 263.8,426.5 263.1,424.7 262.6,424.9 261.6,422.3 263.6,421.5 264.2,423.3 267.2,422.2 266.5,420.4 268.5,419.7 269.2,421.5 269.6,421.3 270.6,423.9 269.5,424.3 272,430.7 273,430.3 273.7,432 274.2,431.8 275.2,434.4 273.2,435.2 272.6,433.4 269.6,434.5 "
           id="polygon17" />
      </g>
    </g>
    <path
       style="fill:#ffffff;fill-rule:evenodd"
       inkscape:connector-curvature="0"
       clip-rule="evenodd"
       d="m 298.4,409.4 c 4.3,0 7.9,3.4 7.3,7.6 -0.3,2.1 -1.3,2.7 -2.4,4 -0.3,0.4 0.5,1.9 0.1,2.2 -0.3,0.2 -0.7,0.5 -1,0.7 0,0.1 0,0.3 0,0.5 0,2.4 -1.9,4.3 -4.3,4.3 -2.4,0 -4.3,-1.9 -4.3,-4.3 0,-0.3 0,-0.5 0.1,-0.7 -2,-1.4 -3.3,-3.7 -3.3,-6.4 -0.1,-4.4 3.4,-7.9 7.8,-7.9 z"
       id="path19" />
    <g
       id="g21">
      <path
         inkscape:connector-curvature="0"
         d="m 299.8,413.5 h 1.1 c 0.1,0 0.2,0 0.3,0.1 0.1,0.1 0.1,0.2 0.1,0.3 l -0.5,3.8 c 0,0.1 0,0.2 0,0.4 0,0.2 0,0.4 0.1,0.5 0.1,0.1 0.2,0.2 0.4,0.2 0.5,0 0.9,-0.3 1.2,-0.8 0.4,-0.5 0.5,-1.2 0.5,-1.9 0,-1.1 -0.4,-2.1 -1.1,-2.9 -0.8,-0.9 -2,-1.4 -3.5,-1.4 -1.5,0 -2.7,0.5 -3.7,1.5 -1,1 -1.5,2.2 -1.5,3.8 0,1.5 0.5,2.7 1.4,3.7 0.2,0.2 0.4,0.4 0.5,0.5 -0.3,0.2 -0.8,0.6 -1.1,1.4 -0.3,-0.2 -0.5,-0.4 -0.8,-0.7 -1.4,-1.3 -2,-3 -2,-4.9 0,-1.9 0.7,-3.6 2,-4.9 1.4,-1.3 3.1,-2 5.1,-2 1.8,0 3.3,0.5 4.6,1.6 1.3,1.1 1.9,2.5 1.9,4.3 0,1.2 -0.3,2.3 -1,3.1 -0.7,1 -1.8,1.5 -3,1.5 -0.4,0 -0.7,0 -1,-0.1 -0.2,-0.1 -0.4,-0.2 -0.6,-0.5 -0.1,-0.1 -0.1,-0.2 -0.2,-0.2 0,0 -0.2,0.1 -0.6,0.3 -0.4,0.2 -0.8,0.3 -1.4,0.3 -0.6,0 -1,-0.2 -1.4,-0.5 -0.3,-0.3 -0.5,-0.8 -0.5,-1.5 l 0.1,-0.6 0.3,-2.1 c 0.1,-0.8 0.3,-1.3 0.7,-1.7 0.4,-0.4 0.9,-0.6 1.5,-0.6 0.3,0 0.6,0 0.8,0.1 0.1,0 0.2,0.1 0.3,0.1 0.1,0 0.1,0.1 0.2,0.1 0.1,0 0.1,0 0.2,-0.1 0.4,-0.2 0.5,-0.2 0.6,-0.2 l 0,0 z m -2.5,8.6 c -0.6,0.4 -1,0.7 -1.1,1.5 0.7,0.2 1.5,0.3 2.4,0.3 0.6,0 1.2,-0.1 1.8,-0.2 0.6,-0.1 1.2,-0.3 1.6,-0.5 l 0.2,-0.1 c 0.2,-0.1 0.3,-0.2 0.3,-0.3 0,0 0,-0.1 0,-0.2 0,-0.1 0,-0.1 -0.1,-0.2 l -0.2,-0.7 c -0.1,-0.1 -0.1,-0.2 -0.3,-0.2 -0.1,0 -0.2,0 -0.3,0.1 l -0.4,0.2 c -0.4,0.2 -0.8,0.3 -1.2,0.3 -0.4,0.1 -0.8,0.1 -1.3,0.1 -0.6,0 -1,0 -1.4,-0.1 l 0,0 z m 1.3,-4.2 0.3,-2.2 c 0,-0.2 0,-0.3 -0.1,-0.4 -0.1,-0.1 -0.2,-0.1 -0.3,-0.1 -0.2,0 -0.3,0 -0.4,0.1 -0.1,0.1 -0.2,0.2 -0.2,0.5 l -0.3,2.2 v 0.1 c 0,0.1 0,0.2 0.1,0.3 0.1,0.1 0.1,0.1 0.3,0.1 0.2,0 0.4,-0.1 0.5,-0.3 0.1,0 0.1,-0.2 0.1,-0.3 z"
         id="path23" />
      <path
         style="fill-rule:evenodd"
         inkscape:connector-curvature="0"
         clip-rule="evenodd"
         d="m 292.7,438.8 c -1.1,2.6 -3.7,4.4 -6.7,4.4 -3,0 -5.6,-1.8 -6.7,-4.4 h 13.4 l 0,0 z m -13,-0.6 6.3,-12.8 6.3,12.8 h -0.6 l -5.7,-11.5 -5.7,11.5 h -0.6 l 0,0 z m 24.7,0 6.3,-12.8 6.3,12.8 h -0.6 l -5.7,-11.5 -5.7,11.5 h -0.6 l 0,0 z m 13.1,0.6 c -1.1,2.6 -3.7,4.4 -6.7,4.4 -3,0 -5.6,-1.8 -6.7,-4.4 h 13.4 z"
         id="path25" />
      <path
         style="fill-rule:evenodd"
         inkscape:connector-curvature="0"
         clip-rule="evenodd"
         d="m 297.9,420.6 c -2,0 -3.6,1.6 -3.6,3.5 h -8.9 v 0.7 l 10,2 c 0.6,0.6 1.5,1 2.5,1 0.8,0 1.6,-0.3 2.2,-0.8 l 11.1,-2.2 v -0.7 h -9.7 c 0,-0.1 0,-0.2 0,-0.2 -0.2,0.1 -0.4,0.1 -0.6,0.2 -0.2,0 -0.4,0.1 -0.6,0.1 0,1.3 -1.1,2.4 -2.4,2.4 -1.3,0 -2.4,-1.1 -2.4,-2.4 0,-1.3 1.1,-2.4 2.4,-2.4 0.4,0 0.8,0.1 1.1,0.3 0.4,0 0.7,-0.1 0.9,-0.2 0.2,-0.1 0.4,-0.2 0.5,-0.2 -0.6,-0.8 -1.5,-1.1 -2.5,-1.1 z"
         id="path27" />
    </g>
  </g>
</svg>
